<svg width="25" height="25" viewBox="0 0 25 25" fill="none" xmlns="http://www.w3.org/2000/svg">
<g id="notifications_unread">
<mask id="mask0_2111_2420" style="mask-type:alpha" maskUnits="userSpaceOnUse" x="0" y="0" width="25" height="25">
<rect id="Bounding box" x="0.683594" y="0.588013" width="24" height="24" fill="#325DA8"/>
</mask>
<g mask="url(#mask0_2111_2420)">
<path id="notifications_unread_2" d="M12.6836 22.588C12.1336 22.588 11.6628 22.3922 11.2711 22.0005C10.8794 21.6088 10.6836 21.138 10.6836 20.588H14.6836C14.6836 21.138 14.4878 21.6088 14.0961 22.0005C13.7044 22.3922 13.2336 22.588 12.6836 22.588ZM5.68359 19.588C5.40026 19.588 5.16276 19.4922 4.97109 19.3005C4.77943 19.1088 4.68359 18.8713 4.68359 18.588C4.68359 18.3047 4.77943 18.0672 4.97109 17.8755C5.16276 17.6838 5.40026 17.588 5.68359 17.588H6.68359V10.588C6.68359 9.20468 7.10026 7.97551 7.93359 6.90051C8.76693 5.82551 9.85026 5.12135 11.1836 4.78801V4.08801C11.1836 3.67135 11.3294 3.31718 11.6211 3.02551C11.9128 2.73385 12.2669 2.58801 12.6836 2.58801C13.1003 2.58801 13.4544 2.73385 13.7461 3.02551C14.0378 3.31718 14.1836 3.67135 14.1836 4.08801V4.41301C14.0003 4.77968 13.8669 5.15468 13.7836 5.53801C13.7003 5.92135 13.6669 6.31301 13.6836 6.71301C13.5169 6.67968 13.3544 6.65051 13.1961 6.62551C13.0378 6.60051 12.8669 6.58801 12.6836 6.58801C11.5836 6.58801 10.6419 6.97968 9.85859 7.76301C9.07526 8.54635 8.68359 9.48801 8.68359 10.588V17.588H16.6836V11.163C16.9836 11.2963 17.3044 11.4005 17.6461 11.4755C17.9878 11.5505 18.3336 11.588 18.6836 11.588V17.588H19.6836C19.9669 17.588 20.2044 17.6838 20.3961 17.8755C20.5878 18.0672 20.6836 18.3047 20.6836 18.588C20.6836 18.8713 20.5878 19.1088 20.3961 19.3005C20.2044 19.4922 19.9669 19.588 19.6836 19.588H5.68359ZM18.6836 9.58801C17.8503 9.58801 17.1419 9.29635 16.5586 8.71301C15.9753 8.12968 15.6836 7.42135 15.6836 6.58801C15.6836 5.75468 15.9753 5.04635 16.5586 4.46301C17.1419 3.87968 17.8503 3.58801 18.6836 3.58801C19.5169 3.58801 20.2253 3.87968 20.8086 4.46301C21.3919 5.04635 21.6836 5.75468 21.6836 6.58801C21.6836 7.42135 21.3919 8.12968 20.8086 8.71301C20.2253 9.29635 19.5169 9.58801 18.6836 9.58801Z" fill="#325DA8"/>
</g>
</g>
</svg>
