<svg width="24" height="24" viewBox="0 0 24 24" fill="none" xmlns="http://www.w3.org/2000/svg">
<g id="drafts">
<mask id="mask0_1013_13784" style="mask-type:alpha" maskUnits="userSpaceOnUse" x="0" y="0" width="24" height="24">
<rect id="Bounding box" width="24" height="24" fill="#D9D9D9"/>
</mask>
<g mask="url(#mask0_1013_13784)">
<path id="drafts_2" d="M13.025 1.6002L21.05 6.4002C21.35 6.58353 21.5833 6.83353 21.75 7.1502C21.9167 7.46686 22 7.8002 22 8.1502V19.0002C22 19.5502 21.8042 20.021 21.4125 20.4127C21.0208 20.8044 20.55 21.0002 20 21.0002H4C3.45 21.0002 2.97917 20.8044 2.5875 20.4127C2.19583 20.021 2 19.5502 2 19.0002V8.1502C2 7.8002 2.08333 7.46686 2.25 7.1502C2.41667 6.83353 2.65 6.58353 2.95 6.4002L10.975 1.6002C11.2917 1.41686 11.6333 1.3252 12 1.3252C12.3667 1.3252 12.7083 1.41686 13.025 1.6002ZM12 12.6502L19.8 8.0002L12 3.3502L4.2 8.0002L12 12.6502ZM10.975 14.3752L4 10.2002V19.0002H20V10.2002L13.025 14.3752C12.7083 14.5585 12.3667 14.6502 12 14.6502C11.6333 14.6502 11.2917 14.5585 10.975 14.3752Z" fill="#11448F"/>
</g>
</g>
</svg>
