<svg width="128" height="128" viewBox="0 0 128 128" fill="none" xmlns="http://www.w3.org/2000/svg">
<g id="album">
<mask id="mask0_1541_1224" style="mask-type:alpha" maskUnits="userSpaceOnUse" x="0" y="0" width="128" height="128">
<rect id="Bounding box" width="128" height="128" fill="#D9D9D9"/>
</mask>
<g mask="url(#mask0_1541_1224)">
<path id="album_2" d="M64 88C70.6666 88 76.3333 85.6667 81 81C85.6666 76.3334 88 70.6667 88 64C88 57.3334 85.6666 51.6667 81 47C76.3333 42.3334 70.6666 40 64 40C57.3333 40 51.6666 42.3334 47 47C42.3333 51.6667 40 57.3334 40 64C40 70.6667 42.3333 76.3334 47 81C51.6666 85.6667 57.3333 88 64 88ZM64 69.3334C62.4888 69.3334 61.2222 68.8222 60.2 67.8C59.1777 66.7778 58.6666 65.5111 58.6666 64C58.6666 62.4889 59.1777 61.2222 60.2 60.2C61.2222 59.1778 62.4888 58.6667 64 58.6667C65.5111 58.6667 66.7777 59.1778 67.8 60.2C68.8222 61.2222 69.3333 62.4889 69.3333 64C69.3333 65.5111 68.8222 66.7778 67.8 67.8C66.7777 68.8222 65.5111 69.3334 64 69.3334ZM64 117.333C56.6222 117.333 49.6888 115.933 43.2 113.133C36.7111 110.333 31.0666 106.533 26.2666 101.733C21.4666 96.9333 17.6666 91.2889 14.8666 84.8C12.0666 78.3111 10.6666 71.3778 10.6666 64C10.6666 56.6222 12.0666 49.6889 14.8666 43.2C17.6666 36.7111 21.4666 31.0667 26.2666 26.2667C31.0666 21.4667 36.7111 17.6667 43.2 14.8667C49.6888 12.0667 56.6222 10.6667 64 10.6667C71.3777 10.6667 78.3111 12.0667 84.8 14.8667C91.2888 17.6667 96.9333 21.4667 101.733 26.2667C106.533 31.0667 110.333 36.7111 113.133 43.2C115.933 49.6889 117.333 56.6222 117.333 64C117.333 71.3778 115.933 78.3111 113.133 84.8C110.333 91.2889 106.533 96.9333 101.733 101.733C96.9333 106.533 91.2888 110.333 84.8 113.133C78.3111 115.933 71.3777 117.333 64 117.333ZM64 106.667C75.9111 106.667 86 102.533 94.2666 94.2667C102.533 86 106.667 75.9111 106.667 64C106.667 52.0889 102.533 42 94.2666 33.7334C86 25.4667 75.9111 21.3334 64 21.3334C52.0888 21.3334 42 25.4667 33.7333 33.7334C25.4666 42 21.3333 52.0889 21.3333 64C21.3333 75.9111 25.4666 86 33.7333 94.2667C42 102.533 52.0888 106.667 64 106.667Z" fill="#325DA8"/>
</g>
</g>
</svg>
