<svg width="128" height="128" viewBox="0 0 128 128" fill="none" xmlns="http://www.w3.org/2000/svg">
<g id="lightbulb_circle">
<mask id="mask0_1541_847" style="mask-type:alpha" maskUnits="userSpaceOnUse" x="0" y="0" width="128" height="128">
<rect id="Bounding box" width="128" height="128" fill="#D9D9D9"/>
</mask>
<g mask="url(#mask0_1541_847)">
<path id="lightbulb_circle_2" d="M64 101.333C66.2222 101.333 68.1111 100.556 69.6666 99C71.2222 97.4444 72 95.5555 72 93.3333H56C56 95.5555 56.7777 97.4444 58.3333 99C59.8888 100.556 61.7777 101.333 64 101.333ZM52 88H76C77.1555 88 78.1111 87.6222 78.8666 86.8667C79.6222 86.1111 80 85.1555 80 84C80 82.8444 79.6222 81.8889 78.8666 81.1333C78.1111 80.3778 77.1555 80 76 80H52C50.8444 80 49.8888 80.3778 49.1333 81.1333C48.3777 81.8889 48 82.8444 48 84C48 85.1555 48.3777 86.1111 49.1333 86.8667C49.8888 87.6222 50.8444 88 52 88ZM48.1333 74.6667H79.8666C83.1555 72.2667 85.7777 69.2222 87.7333 65.5333C89.6888 61.8444 90.6666 57.7778 90.6666 53.3333C90.6666 45.9555 88.0666 39.6667 82.8666 34.4667C77.6666 29.2667 71.3777 26.6667 64 26.6667C56.6222 26.6667 50.3333 29.2667 45.1333 34.4667C39.9333 39.6667 37.3333 45.9555 37.3333 53.3333C37.3333 57.7778 38.3111 61.8444 40.2666 65.5333C42.2222 69.2222 44.8444 72.2667 48.1333 74.6667ZM51.0666 66.6667C49.2888 64.8889 47.8888 62.8667 46.8666 60.6C45.8444 58.3333 45.3333 55.9111 45.3333 53.3333C45.3333 48.1778 47.1555 43.7778 50.8 40.1333C54.4444 36.4889 58.8444 34.6667 64 34.6667C69.1555 34.6667 73.5555 36.4889 77.2 40.1333C80.8444 43.7778 82.6666 48.1778 82.6666 53.3333C82.6666 55.9111 82.1555 58.3333 81.1333 60.6C80.1111 62.8667 78.7111 64.8889 76.9333 66.6667H51.0666ZM64 117.333C56.6222 117.333 49.6888 115.933 43.2 113.133C36.7111 110.333 31.0666 106.533 26.2666 101.733C21.4666 96.9333 17.6666 91.2889 14.8666 84.8C12.0666 78.3111 10.6666 71.3778 10.6666 64C10.6666 56.6222 12.0666 49.6889 14.8666 43.2C17.6666 36.7111 21.4666 31.0667 26.2666 26.2667C31.0666 21.4667 36.7111 17.6667 43.2 14.8667C49.6888 12.0667 56.6222 10.6667 64 10.6667C71.3777 10.6667 78.3111 12.0667 84.8 14.8667C91.2888 17.6667 96.9333 21.4667 101.733 26.2667C106.533 31.0667 110.333 36.7111 113.133 43.2C115.933 49.6889 117.333 56.6222 117.333 64C117.333 71.3778 115.933 78.3111 113.133 84.8C110.333 91.2889 106.533 96.9333 101.733 101.733C96.9333 106.533 91.2888 110.333 84.8 113.133C78.3111 115.933 71.3777 117.333 64 117.333ZM64 106.667C75.9111 106.667 86 102.533 94.2666 94.2667C102.533 86 106.667 75.9111 106.667 64C106.667 52.0889 102.533 42 94.2666 33.7333C86 25.4667 75.9111 21.3333 64 21.3333C52.0888 21.3333 42 25.4667 33.7333 33.7333C25.4666 42 21.3333 52.0889 21.3333 64C21.3333 75.9111 25.4666 86 33.7333 94.2667C42 102.533 52.0888 106.667 64 106.667Z" fill="#325DA8"/>
</g>
</g>
</svg>
