<svg width="128" height="128" viewBox="0 0 128 128" fill="none" xmlns="http://www.w3.org/2000/svg">
<g id="photo_library">
<mask id="mask0_1541_710" style="mask-type:alpha" maskUnits="userSpaceOnUse" x="0" y="0" width="128" height="128">
<rect id="Bounding box" width="128" height="128" fill="#D9D9D9"/>
</mask>
<g mask="url(#mask0_1541_710)">
<path id="photo_library_2" d="M70.6667 66.6667L64.5334 58.6667C64.0001 57.9556 63.289 57.6 62.4001 57.6C61.5112 57.6 60.8001 57.9556 60.2667 58.6667L51.3334 70.4C50.6223 71.2889 50.5112 72.2222 51.0001 73.2C51.489 74.1778 52.3112 74.6667 53.4667 74.6667H95.8667C97.0223 74.6667 97.8445 74.1778 98.3334 73.2C98.8223 72.2222 98.7112 71.2889 98.0001 70.4L85.0667 53.4667C84.5334 52.7556 83.8223 52.4 82.9334 52.4C82.0445 52.4 81.3334 52.7556 80.8001 53.4667L70.6667 66.6667ZM42.6667 96C39.7334 96 37.2223 94.9556 35.1334 92.8667C33.0445 90.7778 32.0001 88.2667 32.0001 85.3334V21.3334C32.0001 18.4 33.0445 15.8889 35.1334 13.8C37.2223 11.7111 39.7334 10.6667 42.6667 10.6667H106.667C109.6 10.6667 112.111 11.7111 114.2 13.8C116.289 15.8889 117.333 18.4 117.333 21.3334V85.3334C117.333 88.2667 116.289 90.7778 114.2 92.8667C112.111 94.9556 109.6 96 106.667 96H42.6667ZM42.6667 85.3334H106.667V21.3334H42.6667V85.3334ZM21.3334 117.333C18.4001 117.333 15.889 116.289 13.8001 114.2C11.7112 112.111 10.6667 109.6 10.6667 106.667V37.3334C10.6667 35.8222 11.1779 34.5556 12.2001 33.5334C13.2223 32.5111 14.489 32 16.0001 32C17.5112 32 18.7779 32.5111 19.8001 33.5334C20.8223 34.5556 21.3334 35.8222 21.3334 37.3334V106.667H90.6667C92.1779 106.667 93.4445 107.178 94.4667 108.2C95.489 109.222 96.0001 110.489 96.0001 112C96.0001 113.511 95.489 114.778 94.4667 115.8C93.4445 116.822 92.1779 117.333 90.6667 117.333H21.3334Z" fill="#325DA8"/>
</g>
</g>
</svg>
