<svg width="128" height="128" viewBox="0 0 128 128" fill="none" xmlns="http://www.w3.org/2000/svg">
<g id="library_music">
<mask id="mask0_1541_678" style="mask-type:alpha" maskUnits="userSpaceOnUse" x="0" y="0" width="128" height="128">
<rect id="Bounding box" width="128" height="128" fill="#D9D9D9"/>
</mask>
<g mask="url(#mask0_1541_678)">
<path id="library_music_2" d="M66.6667 80C70.4001 80 73.5556 78.7111 76.1334 76.1334C78.7112 73.5556 80.0001 70.4 80.0001 66.6667V37.3334H90.6667C92.1779 37.3334 93.4445 36.8222 94.4667 35.8C95.489 34.7778 96.0001 33.5111 96.0001 32C96.0001 30.4889 95.489 29.2222 94.4667 28.2C93.4445 27.1778 92.1779 26.6667 90.6667 26.6667H80.0001C78.489 26.6667 77.2223 27.1778 76.2001 28.2C75.1779 29.2222 74.6667 30.4889 74.6667 32V56C73.5112 55.1111 72.2667 54.4445 70.9334 54C69.6001 53.5556 68.1779 53.3334 66.6667 53.3334C62.9334 53.3334 59.7779 54.6222 57.2001 57.2C54.6223 59.7778 53.3334 62.9333 53.3334 66.6667C53.3334 70.4 54.6223 73.5556 57.2001 76.1334C59.7779 78.7111 62.9334 80 66.6667 80ZM42.6667 96C39.7334 96 37.2223 94.9556 35.1334 92.8667C33.0445 90.7778 32.0001 88.2667 32.0001 85.3334V21.3334C32.0001 18.4 33.0445 15.8889 35.1334 13.8C37.2223 11.7111 39.7334 10.6667 42.6667 10.6667H106.667C109.6 10.6667 112.111 11.7111 114.2 13.8C116.289 15.8889 117.333 18.4 117.333 21.3334V85.3334C117.333 88.2667 116.289 90.7778 114.2 92.8667C112.111 94.9556 109.6 96 106.667 96H42.6667ZM42.6667 85.3334H106.667V21.3334H42.6667V85.3334ZM21.3334 117.333C18.4001 117.333 15.889 116.289 13.8001 114.2C11.7112 112.111 10.6667 109.6 10.6667 106.667V37.3334C10.6667 35.8222 11.1779 34.5556 12.2001 33.5334C13.2223 32.5111 14.489 32 16.0001 32C17.5112 32 18.7779 32.5111 19.8001 33.5334C20.8223 34.5556 21.3334 35.8222 21.3334 37.3334V106.667H90.6667C92.1779 106.667 93.4445 107.178 94.4667 108.2C95.489 109.222 96.0001 110.489 96.0001 112C96.0001 113.511 95.489 114.778 94.4667 115.8C93.4445 116.822 92.1779 117.333 90.6667 117.333H21.3334Z" fill="#325DA8"/>
</g>
</g>
</svg>
