<svg width="128" height="128" viewBox="0 0 128 128" fill="none" xmlns="http://www.w3.org/2000/svg">
<g id="package_2">
<mask id="mask0_1541_1246" style="mask-type:alpha" maskUnits="userSpaceOnUse" x="0" y="0" width="128" height="128">
<rect id="Bounding box" width="128" height="128" fill="#D9D9D9"/>
</mask>
<g mask="url(#mask0_1541_1246)">
<path id="package_2_2" d="M58.6667 103.6V67.0667L26.6667 48.5334V85.0667L58.6667 103.6ZM69.3333 103.6L101.333 85.0667V48.5334L69.3333 67.0667V103.6ZM58.6667 115.867L21.3333 94.4C19.6444 93.4222 18.3333 92.1334 17.4 90.5333C16.4667 88.9333 16 87.1556 16 85.2V42.8C16 40.8445 16.4667 39.0667 17.4 37.4667C18.3333 35.8667 19.6444 34.5778 21.3333 33.6L58.6667 12.1334C60.3556 11.1556 62.1333 10.6667 64 10.6667C65.8667 10.6667 67.6444 11.1556 69.3333 12.1334L106.667 33.6C108.356 34.5778 109.667 35.8667 110.6 37.4667C111.533 39.0667 112 40.8445 112 42.8V85.2C112 87.1556 111.533 88.9333 110.6 90.5333C109.667 92.1334 108.356 93.4222 106.667 94.4L69.3333 115.867C67.6444 116.844 65.8667 117.333 64 117.333C62.1333 117.333 60.3556 116.844 58.6667 115.867ZM85.3333 45.4667L95.6 39.6L64 21.3334L53.6 27.3334L85.3333 45.4667ZM64 57.8667L74.4 51.8667L42.8 33.6L32.4 39.6L64 57.8667Z" fill="#325DA8"/>
</g>
</g>
</svg>
