<svg width="72" height="72" viewBox="0 0 72 72" fill="none" xmlns="http://www.w3.org/2000/svg">
<g filter="url(#filter0_d_1_923)">
<rect x="8" y="6" width="56" height="56" rx="28" fill="#D8E2FF"/>
<mask id="mask0_1_923" style="mask-type:alpha" maskUnits="userSpaceOnUse" x="24" y="22" width="24" height="24">
<rect x="24" y="22" width="24" height="24" fill="#D9D9D9"/>
</mask>
<g mask="url(#mask0_1_923)">
<path d="M40.175 35H29C28.7167 35 28.4792 34.9042 28.2875 34.7125C28.0958 34.5208 28 34.2833 28 34C28 33.7167 28.0958 33.4792 28.2875 33.2875C28.4792 33.0958 28.7167 33 29 33H40.175L35.275 28.1C35.075 27.9 34.9792 27.6667 34.9875 27.4C34.9958 27.1333 35.1 26.9 35.3 26.7C35.5 26.5167 35.7333 26.4208 36 26.4125C36.2667 26.4042 36.5 26.5 36.7 26.7L43.3 33.3C43.4 33.4 43.4708 33.5083 43.5125 33.625C43.5542 33.7417 43.575 33.8667 43.575 34C43.575 34.1333 43.5542 34.2583 43.5125 34.375C43.4708 34.4917 43.4 34.6 43.3 34.7L36.7 41.3C36.5167 41.4833 36.2875 41.575 36.0125 41.575C35.7375 41.575 35.5 41.4833 35.3 41.3C35.1 41.1 35 40.8625 35 40.5875C35 40.3125 35.1 40.075 35.3 39.875L40.175 35Z" fill="#1C1B1F"/>
</g>
</g>
<defs>
<filter id="filter0_d_1_923" x="0" y="0" width="72" height="72" filterUnits="userSpaceOnUse" color-interpolation-filters="sRGB">
<feFlood flood-opacity="0" result="BackgroundImageFix"/>
<feColorMatrix in="SourceAlpha" type="matrix" values="0 0 0 0 0 0 0 0 0 0 0 0 0 0 0 0 0 0 127 0" result="hardAlpha"/>
<feOffset dy="2"/>
<feGaussianBlur stdDeviation="4"/>
<feComposite in2="hardAlpha" operator="out"/>
<feColorMatrix type="matrix" values="0 0 0 0 0 0 0 0 0 0 0 0 0 0 0 0 0 0 0.25 0"/>
<feBlend mode="normal" in2="BackgroundImageFix" result="effect1_dropShadow_1_923"/>
<feBlend mode="normal" in="SourceGraphic" in2="effect1_dropShadow_1_923" result="shape"/>
</filter>
</defs>
</svg>
