<svg width="40" height="40" viewBox="0 0 40 40" fill="none" xmlns="http://www.w3.org/2000/svg">
<g id="credit_card">
<mask id="mask0_1911_2087" style="mask-type:alpha" maskUnits="userSpaceOnUse" x="0" y="0" width="40" height="40">
<rect id="Bounding box" width="40" height="40" fill="#D9D9D9"/>
</mask>
<g mask="url(#mask0_1911_2087)">
<path id="credit_card_2" d="M36.6663 9.99996V30C36.6663 30.9166 36.34 31.7013 35.6872 32.3541C35.0344 33.0069 34.2497 33.3333 33.333 33.3333H6.66634C5.74967 33.3333 4.96495 33.0069 4.31217 32.3541C3.6594 31.7013 3.33301 30.9166 3.33301 30V9.99996C3.33301 9.08329 3.6594 8.29857 4.31217 7.64579C4.96495 6.99301 5.74967 6.66663 6.66634 6.66663H33.333C34.2497 6.66663 35.0344 6.99301 35.6872 7.64579C36.34 8.29857 36.6663 9.08329 36.6663 9.99996ZM6.66634 13.3333H33.333V9.99996H6.66634V13.3333ZM6.66634 20V30H33.333V20H6.66634Z" fill="#3F5AA9"/>
</g>
</g>
</svg>
