<svg width="24" height="25" viewBox="0 0 24 25" fill="none" xmlns="http://www.w3.org/2000/svg">
<g id="domain">
<mask id="mask0_1779_2120" style="mask-type:alpha" maskUnits="userSpaceOnUse" x="0" y="0" width="25" height="25">
<rect id="Bounding box" x="0.00732422" y="0.961182" width="24" height="24" fill="#D9D9D9"/>
</mask>
<g mask="url(#mask0_1779_2120)">
<path id="domain_2" d="M2.00732 19.9612V5.96118C2.00732 5.41118 2.20316 4.94035 2.59482 4.54868C2.98649 4.15701 3.45732 3.96118 4.00732 3.96118H10.0073C10.5573 3.96118 11.0282 4.15701 11.4198 4.54868C11.8115 4.94035 12.0073 5.41118 12.0073 5.96118V7.96118H20.0073C20.5573 7.96118 21.0282 8.15702 21.4198 8.54868C21.8115 8.94035 22.0073 9.41118 22.0073 9.96118V19.9612C22.0073 20.5112 21.8115 20.982 21.4198 21.3737C21.0282 21.7653 20.5573 21.9612 20.0073 21.9612H4.00732C3.45732 21.9612 2.98649 21.7653 2.59482 21.3737C2.20316 20.982 2.00732 20.5112 2.00732 19.9612ZM4.00732 19.9612H6.00732V17.9612H4.00732V19.9612ZM4.00732 15.9612H6.00732V13.9612H4.00732V15.9612ZM4.00732 11.9612H6.00732V9.96118H4.00732V11.9612ZM4.00732 7.96118H6.00732V5.96118H4.00732V7.96118ZM8.00732 19.9612H10.0073V17.9612H8.00732V19.9612ZM8.00732 15.9612H10.0073V13.9612H8.00732V15.9612ZM8.00732 11.9612H10.0073V9.96118H8.00732V11.9612ZM8.00732 7.96118H10.0073V5.96118H8.00732V7.96118ZM12.0073 19.9612H20.0073V9.96118H12.0073V11.9612H14.0073V13.9612H12.0073V15.9612H14.0073V17.9612H12.0073V19.9612ZM16.0073 13.9612V11.9612H18.0073V13.9612H16.0073ZM16.0073 17.9612V15.9612H18.0073V17.9612H16.0073Z" fill="#3F5AA9"/>
</g>
</g>
</svg>
