<svg width="40" height="40" viewBox="0 0 40 40" fill="none" xmlns="http://www.w3.org/2000/svg">
<g id="handshake">
<mask id="mask0_1763_2114" style="mask-type:alpha" maskUnits="userSpaceOnUse" x="0" y="0" width="40" height="40">
<rect id="Bounding box" width="40" height="40" fill="#D9D9D9"/>
</mask>
<g mask="url(#mask0_1763_2114)">
<path id="handshake_2" d="M20.1668 35C19.6946 35 19.2942 34.8376 18.9655 34.5128C18.6367 34.1881 18.4724 33.7857 18.4724 33.3055C18.4724 33.1111 18.514 32.9097 18.5974 32.7014C18.6807 32.493 18.8057 32.3055 18.9724 32.1389L26.2085 24.9028C26.3566 24.7546 26.4307 24.5903 26.4307 24.4097C26.4307 24.2292 26.3566 24.0648 26.2085 23.9167C26.0604 23.7685 25.896 23.6968 25.7155 23.7014C25.5349 23.706 25.3706 23.7824 25.2224 23.9305L18.0049 31.148C17.8351 31.3179 17.6529 31.4445 17.4585 31.5278C17.2641 31.6111 17.0557 31.6528 16.8335 31.6528C16.3613 31.6528 15.9654 31.4931 15.646 31.1736C15.3266 30.8542 15.1668 30.4583 15.1668 29.9861C15.1668 29.7083 15.2085 29.4792 15.2918 29.2986C15.3752 29.1181 15.4873 28.9573 15.6283 28.8163L22.8613 21.5833C23.0094 21.4352 23.0835 21.2732 23.0835 21.0972C23.0835 20.9213 23.0094 20.7593 22.8613 20.6111C22.7132 20.463 22.5511 20.3889 22.3752 20.3889C22.1992 20.3889 22.0372 20.463 21.8891 20.6111L14.6646 27.7982C14.4956 27.9674 14.3125 28.0942 14.1154 28.1788C13.9182 28.2633 13.6946 28.3056 13.4446 28.3056C13.0002 28.3056 12.6113 28.1389 12.278 27.8056C11.9446 27.4723 11.778 27.0834 11.778 26.6389C11.778 26.4167 11.8196 26.2084 11.903 26.0139C11.9863 25.8195 12.1113 25.6389 12.278 25.4723L19.5002 18.25C19.6483 18.1019 19.7224 17.9375 19.7224 17.757C19.7224 17.5764 19.6483 17.4121 19.5002 17.2639C19.352 17.1157 19.19 17.0417 19.0141 17.0417C18.8381 17.0417 18.6761 17.1157 18.528 17.2639L11.3447 24.4933C11.2038 24.6342 11.0348 24.747 10.8376 24.8315C10.6404 24.9161 10.4029 24.9583 10.1252 24.9583C9.65294 24.9583 9.25711 24.8013 8.93766 24.4872C8.61822 24.1731 8.4585 23.7838 8.4585 23.3195C8.4585 23.0972 8.50016 22.8889 8.5835 22.6945C8.66683 22.5 8.79183 22.3195 8.9585 22.1528L17.3474 13.7639C17.5974 13.5139 17.9064 13.4 18.2745 13.422C18.6426 13.4441 18.9493 13.5766 19.1946 13.8195L23.8613 18.4861C24.1668 18.7917 24.5141 19.044 24.903 19.243C25.2918 19.4421 25.7317 19.5417 26.2224 19.5417C27.1113 19.5417 27.8705 19.2477 28.5002 18.6597C29.1298 18.0718 29.4446 17.2917 29.4446 16.3195C29.4446 15.9306 29.3705 15.5417 29.2224 15.1528C29.0742 14.7639 28.8196 14.3889 28.4585 14.0278L21.0002 6.56946L21.1668 6.375C21.6391 5.93056 22.1668 5.59028 22.7502 5.35417C23.3335 5.11806 23.9168 5 24.5002 5C25.2224 5 25.8891 5.11806 26.5002 5.35417C27.1113 5.59028 27.6668 5.95833 28.1668 6.45833L35.2085 13.5417C35.7085 14.0417 36.0766 14.5972 36.3127 15.2083C36.5488 15.8194 36.6668 16.5278 36.6668 17.3333C36.6668 17.8889 36.5418 18.4514 36.2918 19.0208C36.0418 19.5903 35.6807 20.1111 35.2085 20.5833L21.3335 34.5C21.1113 34.7222 20.9168 34.8611 20.7502 34.9167C20.5835 34.9722 20.3891 35 20.1668 35ZM6.65296 22.4445L4.79183 20.5833C4.31961 20.1389 3.9585 19.6111 3.7085 19C3.4585 18.3889 3.3335 17.75 3.3335 17.0833C3.3335 16.3611 3.47239 15.6944 3.75016 15.0833C4.02794 14.4722 4.37516 13.9583 4.79183 13.5417L11.8335 6.45833C12.2779 6.01389 12.8057 5.65972 13.4168 5.39583C14.0279 5.13194 14.6252 5 15.2085 5C15.9585 5 16.6252 5.10417 17.2085 5.3125C17.7918 5.52083 18.3613 5.90278 18.9168 6.45833L27.4585 15C27.6807 15.2222 27.8381 15.4398 27.9307 15.6528C28.0233 15.8657 28.0696 16.0833 28.0696 16.3055C28.0696 16.8241 27.8937 17.2593 27.5418 17.6111C27.19 17.963 26.7548 18.1389 26.2363 18.1389C25.9863 18.1389 25.7455 18.0857 25.514 17.9792C25.2826 17.8727 25.0511 17.7037 24.8196 17.4722L20.1668 12.8333C19.6368 12.3056 18.9858 12.0417 18.2137 12.0417C17.4417 12.0417 16.7919 12.3056 16.2641 12.8333L6.65296 22.4445Z" fill="#3F5AA9"/>
</g>
</g>
</svg>
