<svg width="24" height="24" viewBox="0 0 24 24" fill="none" xmlns="http://www.w3.org/2000/svg">
<g id="ad_units">
<mask id="mask0_1013_13766" style="mask-type:alpha" maskUnits="userSpaceOnUse" x="0" y="0" width="24" height="24">
<rect id="Bounding box" width="24" height="24" fill="#D9D9D9"/>
</mask>
<g mask="url(#mask0_1013_13766)">
<path id="ad_units_2" d="M9 9C8.71667 9 8.47917 8.90417 8.2875 8.7125C8.09583 8.52083 8 8.28333 8 8C8 7.71667 8.09583 7.47917 8.2875 7.2875C8.47917 7.09583 8.71667 7 9 7H15C15.2833 7 15.5208 7.09583 15.7125 7.2875C15.9042 7.47917 16 7.71667 16 8C16 8.28333 15.9042 8.52083 15.7125 8.7125C15.5208 8.90417 15.2833 9 15 9H9ZM7 23C6.45 23 5.97917 22.8042 5.5875 22.4125C5.19583 22.0208 5 21.55 5 21V3C5 2.45 5.19583 1.97917 5.5875 1.5875C5.97917 1.19583 6.45 1 7 1H17C17.55 1 18.0208 1.19583 18.4125 1.5875C18.8042 1.97917 19 2.45 19 3V21C19 21.55 18.8042 22.0208 18.4125 22.4125C18.0208 22.8042 17.55 23 17 23H7ZM7 20V21H17V20H7ZM7 18H17V6H7V18ZM7 4H17V3H7V4Z" fill="#11448F"/>
</g>
</g>
</svg>
