<svg width="32" height="32" viewBox="0 0 32 32" fill="none" xmlns="http://www.w3.org/2000/svg">
<g id="&#240;&#159;&#166;&#134; icon &#34;youtube round 2&#34;">
<g id="Group">
<path id="Vector" d="M16 32C24.8366 32 32 24.8366 32 16C32 7.16344 24.8366 0 16 0C7.16344 0 0 7.16344 0 16C0 24.8366 7.16344 32 16 32Z" fill="#E43535"/>
<path id="Vector_2" fill-rule="evenodd" clip-rule="evenodd" d="M21.1762 21.3335H11.3566C10.097 21.3335 9.06641 20.2806 9.06641 18.9937V13.54C9.06641 12.2531 10.097 11.2002 11.3566 11.2002H21.1762C22.4358 11.2002 23.4664 12.2531 23.4664 13.54V18.9937C23.4664 20.2806 22.4358 21.3335 21.1762 21.3335ZM14.9588 14.3072V18.6349L18.8797 16.4005L14.9588 14.3072Z" fill="white"/>
</g>
</g>
</svg>
