<svg width="41" height="41" viewBox="0 0 41 41" fill="none" xmlns="http://www.w3.org/2000/svg">
<g id="local_shipping">
<mask id="mask0_1911_2081" style="mask-type:alpha" maskUnits="userSpaceOnUse" x="0" y="0" width="41" height="41">
<rect id="Bounding box" x="0.946289" y="0.883179" width="40" height="40" fill="#D9D9D9"/>
</mask>
<g mask="url(#mask0_1911_2081)">
<path id="local_shipping_2" d="M10.9466 34.2165C9.55773 34.2165 8.37717 33.7304 7.40495 32.7581C6.43273 31.7859 5.94661 30.6054 5.94661 29.2165H4.27995C3.80773 29.2165 3.41189 29.0567 3.09245 28.7373C2.773 28.4179 2.61328 28.022 2.61328 27.5498V10.8831C2.61328 9.96647 2.93967 9.18175 3.59245 8.52897C4.24523 7.87619 5.02995 7.5498 5.94661 7.5498H25.9466C26.8633 7.5498 27.648 7.87619 28.3008 8.52897C28.9536 9.18175 29.2799 9.96647 29.2799 10.8831V14.2165H32.6133C33.1411 14.2165 33.6411 14.3345 34.1133 14.5706C34.5855 14.8067 34.9744 15.1331 35.28 15.5498L38.9466 20.4248C39.0577 20.5637 39.1411 20.7165 39.1966 20.8831C39.2522 21.0498 39.2799 21.2304 39.2799 21.4248V27.5498C39.2799 28.022 39.1202 28.4179 38.8008 28.7373C38.4813 29.0567 38.0855 29.2165 37.6133 29.2165H35.9466C35.9466 30.6054 35.4605 31.7859 34.4883 32.7581C33.5161 33.7304 32.3355 34.2165 30.9466 34.2165C29.5577 34.2165 28.3772 33.7304 27.4049 32.7581C26.4327 31.7859 25.9466 30.6054 25.9466 29.2165H15.9466C15.9466 30.6054 15.4605 31.7859 14.4883 32.7581C13.5161 33.7304 12.3355 34.2165 10.9466 34.2165ZM10.9466 30.8831C11.4188 30.8831 11.8147 30.7234 12.1341 30.404C12.4536 30.0845 12.6133 29.6887 12.6133 29.2165C12.6133 28.7442 12.4536 28.3484 12.1341 28.029C11.8147 27.7095 11.4188 27.5498 10.9466 27.5498C10.4744 27.5498 10.0786 27.7095 9.75911 28.029C9.43967 28.3484 9.27995 28.7442 9.27995 29.2165C9.27995 29.6887 9.43967 30.0845 9.75911 30.404C10.0786 30.7234 10.4744 30.8831 10.9466 30.8831ZM5.94661 25.8831H7.27995C7.75217 25.3831 8.29384 24.9804 8.90495 24.6748C9.51606 24.3692 10.1966 24.2165 10.9466 24.2165C11.6966 24.2165 12.3772 24.3692 12.9883 24.6748C13.5994 24.9804 14.1411 25.3831 14.6133 25.8831H25.9466V10.8831H5.94661V25.8831ZM30.9466 30.8831C31.4188 30.8831 31.8147 30.7234 32.1341 30.404C32.4536 30.0845 32.6133 29.6887 32.6133 29.2165C32.6133 28.7442 32.4536 28.3484 32.1341 28.029C31.8147 27.7095 31.4188 27.5498 30.9466 27.5498C30.4744 27.5498 30.0786 27.7095 29.7591 28.029C29.4397 28.3484 29.2799 28.7442 29.2799 29.2165C29.2799 29.6887 29.4397 30.0845 29.7591 30.404C30.0786 30.7234 30.4744 30.8831 30.9466 30.8831ZM29.2799 22.5498H36.3633L32.6133 17.5498H29.2799V22.5498Z" fill="#3F5AA9"/>
</g>
</g>
</svg>
