<svg width="49" height="48" viewBox="0 0 49 48" fill="none" xmlns="http://www.w3.org/2000/svg">
<g id="model_training">
<mask id="mask0_1296_1369" style="mask-type:alpha" maskUnits="userSpaceOnUse" x="0" y="0" width="49" height="48">
<rect id="Bounding box" x="0.5" width="48" height="48" fill="#D9D9D9"/>
</mask>
<g mask="url(#mask0_1296_1369)">
<path id="model_training_2" d="M10.8 37.7C9.43333 36.1 8.375 34.3083 7.625 32.325C6.875 30.3417 6.5 28.2333 6.5 26C6.5 21 8.25 16.75 11.75 13.25C15.25 9.75 19.5 8 24.5 8H24.9L21.7 4.8L24.5 2L32.5 10L24.5 18L21.65 15.15L24.8 12H24.5C20.6333 12 17.3333 13.3667 14.6 16.1C11.8667 18.8333 10.5 22.1333 10.5 26C10.5 27.7 10.775 29.3 11.325 30.8C11.875 32.3 12.65 33.65 13.65 34.85L10.8 37.7ZM22.5 37C22.5 36.2333 22.2417 35.475 21.725 34.725C21.2083 33.975 20.6333 33.1917 20 32.375C19.3667 31.5583 18.7917 30.7083 18.275 29.825C17.7583 28.9417 17.5 28 17.5 27C17.5 25.0667 18.1833 23.4167 19.55 22.05C20.9167 20.6833 22.5667 20 24.5 20C26.4333 20 28.0833 20.6833 29.45 22.05C30.8167 23.4167 31.5 25.0667 31.5 27C31.5 28 31.2417 28.9417 30.725 29.825C30.2083 30.7083 29.6333 31.5583 29 32.375C28.3667 33.1917 27.7917 33.975 27.275 34.725C26.7583 35.475 26.5 36.2333 26.5 37H22.5ZM22.5 42V39H26.5V42H22.5ZM38.2 37.7L35.35 34.85C36.35 33.65 37.125 32.3 37.675 30.8C38.225 29.3 38.5 27.7 38.5 26C38.5 23.8 38.0417 21.7583 37.125 19.875C36.2083 17.9917 34.95 16.4167 33.35 15.15L36.2 12.3C38.1333 13.9667 39.6667 15.975 40.8 18.325C41.9333 20.675 42.5 23.2333 42.5 26C42.5 28.2333 42.125 30.3417 41.375 32.325C40.625 34.3083 39.5667 36.1 38.2 37.7Z" fill="#3F5AA9"/>
</g>
</g>
</svg>
