<svg width="24" height="24" viewBox="0 0 24 24" fill="none" xmlns="http://www.w3.org/2000/svg">
<g id="motion_photos_auto">
<mask id="mask0_1750_2078" style="mask-type:alpha" maskUnits="userSpaceOnUse" x="0" y="0" width="24" height="24">
<rect id="Bounding box" width="24" height="24" fill="#D9D9D9"/>
</mask>
<g mask="url(#mask0_1750_2078)">
<path id="motion_photos_auto_2" d="M10.4 13.45H13.6L14.2 15.075C14.25 15.2083 14.3292 15.3125 14.4375 15.3875C14.5458 15.4625 14.6667 15.5 14.8 15.5C15.0333 15.5 15.2125 15.4083 15.3375 15.225C15.4625 15.0417 15.4833 14.8417 15.4 14.625L12.85 7.925C12.8 7.79167 12.7208 7.6875 12.6125 7.6125C12.5042 7.5375 12.3833 7.5 12.25 7.5H11.75C11.6167 7.5 11.4958 7.5375 11.3875 7.6125C11.2792 7.6875 11.2 7.79167 11.15 7.925L8.625 14.65C8.54167 14.85 8.55833 15.0417 8.675 15.225C8.79167 15.4083 8.96667 15.5 9.2 15.5C9.33333 15.5 9.45417 15.4625 9.5625 15.3875C9.67083 15.3125 9.75 15.2083 9.8 15.075L10.4 13.45ZM10.8 12.3L11.95 9H12.05L13.2 12.3H10.8ZM12 22C10.6167 22 9.31667 21.7375 8.1 21.2125C6.88333 20.6875 5.825 19.975 4.925 19.075C4.025 18.175 3.3125 17.1167 2.7875 15.9C2.2625 14.6833 2 13.3833 2 12C2 11.4667 2.04167 10.9333 2.125 10.4C2.20833 9.86667 2.33333 9.34167 2.5 8.825C2.58333 8.55833 2.75417 8.37917 3.0125 8.2875C3.27083 8.19583 3.51667 8.21667 3.75 8.35C4 8.48333 4.17917 8.67917 4.2875 8.9375C4.39583 9.19583 4.40833 9.46667 4.325 9.75C4.225 10.1167 4.14583 10.4875 4.0875 10.8625C4.02917 11.2375 4 11.6167 4 12C4 14.2333 4.775 16.125 6.325 17.675C7.875 19.225 9.76667 20 12 20C14.2333 20 16.125 19.225 17.675 17.675C19.225 16.125 20 14.2333 20 12C20 9.76667 19.225 7.875 17.675 6.325C16.125 4.775 14.2333 4 12 4C11.6 4 11.2042 4.02917 10.8125 4.0875C10.4208 4.14583 10.0333 4.23333 9.65 4.35C9.36667 4.43333 9.1 4.425 8.85 4.325C8.6 4.225 8.41667 4.05 8.3 3.8C8.18333 3.55 8.17917 3.29583 8.2875 3.0375C8.39583 2.77917 8.58333 2.60833 8.85 2.525C9.35 2.34167 9.86667 2.20833 10.4 2.125C10.9333 2.04167 11.4667 2 12 2C13.3833 2 14.6833 2.2625 15.9 2.7875C17.1167 3.3125 18.175 4.025 19.075 4.925C19.975 5.825 20.6875 6.88333 21.2125 8.1C21.7375 9.31667 22 10.6167 22 12C22 13.3833 21.7375 14.6833 21.2125 15.9C20.6875 17.1167 19.975 18.175 19.075 19.075C18.175 19.975 17.1167 20.6875 15.9 21.2125C14.6833 21.7375 13.3833 22 12 22ZM5.5 7C5.08333 7 4.72917 6.85417 4.4375 6.5625C4.14583 6.27083 4 5.91667 4 5.5C4 5.08333 4.14583 4.72917 4.4375 4.4375C4.72917 4.14583 5.08333 4 5.5 4C5.91667 4 6.27083 4.14583 6.5625 4.4375C6.85417 4.72917 7 5.08333 7 5.5C7 5.91667 6.85417 6.27083 6.5625 6.5625C6.27083 6.85417 5.91667 7 5.5 7Z" fill="#3F5AA9"/>
</g>
</g>
</svg>
