<svg width="49" height="48" viewBox="0 0 49 48" fill="none" xmlns="http://www.w3.org/2000/svg">
<g id="new_releases">
<mask id="mask0_1296_1274" style="mask-type:alpha" maskUnits="userSpaceOnUse" x="0" y="0" width="49" height="48">
<rect id="Bounding box" x="0.5" width="48" height="48" fill="#D9D9D9"/>
</mask>
<g mask="url(#mask0_1296_1274)">
<path id="new_releases_2" d="M22.3999 25.4002L19.4999 22.5502C19.1332 22.1836 18.6749 22.0002 18.1249 22.0002C17.5749 22.0002 17.0999 22.2002 16.6999 22.6002C16.3332 22.9669 16.1499 23.4336 16.1499 24.0002C16.1499 24.5669 16.3332 25.0336 16.6999 25.4002L20.9999 29.7002C21.3999 30.1002 21.8666 30.3002 22.3999 30.3002C22.9332 30.3002 23.3999 30.1002 23.7999 29.7002L32.2999 21.2002C32.6999 20.8002 32.8916 20.3336 32.8749 19.8002C32.8582 19.2669 32.6666 18.8002 32.2999 18.4002C31.8999 18.0002 31.4249 17.7919 30.8749 17.7752C30.3249 17.7586 29.8499 17.9502 29.4499 18.3502L22.3999 25.4002ZM16.7999 43.5002L13.8999 38.6002L8.3999 37.4002C7.8999 37.3002 7.4999 37.0419 7.1999 36.6252C6.8999 36.2086 6.78324 35.7502 6.8499 35.2502L7.3999 29.6002L3.6499 25.3002C3.31657 24.9336 3.1499 24.5002 3.1499 24.0002C3.1499 23.5002 3.31657 23.0669 3.6499 22.7002L7.3999 18.4002L6.8499 12.7502C6.78324 12.2502 6.8999 11.7919 7.1999 11.3752C7.4999 10.9586 7.8999 10.7002 8.3999 10.6002L13.8999 9.40024L16.7999 4.50024C17.0666 4.0669 17.4332 3.77524 17.8999 3.62524C18.3666 3.47524 18.8332 3.50024 19.2999 3.70024L24.4999 5.90024L29.6999 3.70024C30.1666 3.50024 30.6332 3.47524 31.0999 3.62524C31.5666 3.77524 31.9332 4.0669 32.1999 4.50024L35.0999 9.40024L40.5999 10.6002C41.0999 10.7002 41.4999 10.9586 41.7999 11.3752C42.0999 11.7919 42.2166 12.2502 42.1499 12.7502L41.5999 18.4002L45.3499 22.7002C45.6832 23.0669 45.8499 23.5002 45.8499 24.0002C45.8499 24.5002 45.6832 24.9336 45.3499 25.3002L41.5999 29.6002L42.1499 35.2502C42.2166 35.7502 42.0999 36.2086 41.7999 36.6252C41.4999 37.0419 41.0999 37.3002 40.5999 37.4002L35.0999 38.6002L32.1999 43.5002C31.9332 43.9336 31.5666 44.2252 31.0999 44.3752C30.6332 44.5252 30.1666 44.5002 29.6999 44.3002L24.4999 42.1002L19.2999 44.3002C18.8332 44.5002 18.3666 44.5252 17.8999 44.3752C17.4332 44.2252 17.0666 43.9336 16.7999 43.5002Z" fill="#3F5AA9"/>
</g>
</g>
</svg>
