<svg width="49" height="48" viewBox="0 0 49 48" fill="none" xmlns="http://www.w3.org/2000/svg">
<g id="spa">
<mask id="mask0_1296_1366" style="mask-type:alpha" maskUnits="userSpaceOnUse" x="0" y="0" width="49" height="48">
<rect id="Bounding box" x="0.5" width="48" height="48" fill="#D9D9D9"/>
</mask>
<g mask="url(#mask0_1296_1366)">
<path id="spa_2" d="M24.2 43.8499C18.4 42.9832 13.8 40.7416 10.4 37.1249C6.99998 33.5082 5.06664 28.5832 4.59998 22.3499C4.56664 21.9832 4.60831 21.6582 4.72498 21.3749C4.84164 21.0916 4.99998 20.8499 5.19998 20.6499C5.39998 20.4499 5.64164 20.2999 5.92498 20.1999C6.20831 20.0999 6.51664 20.0832 6.84998 20.1499C12.95 20.9832 17.65 23.3332 20.95 27.1999C24.25 31.0666 26.0833 35.8999 26.45 41.6999C26.4833 41.9999 26.4416 42.2916 26.325 42.5749C26.2083 42.8582 26.0333 43.0999 25.8 43.2999C25.6 43.4999 25.3583 43.6582 25.075 43.7749C24.7916 43.8916 24.5 43.9166 24.2 43.8499ZM24.5 25.2499C24.0333 24.5166 22.9583 23.4416 21.275 22.0249C19.5916 20.6082 18.1666 19.6666 17 19.1999C17.2666 17.5332 17.9416 15.4249 19.025 12.8749C20.1083 10.3249 21.4 8.01657 22.9 5.9499C23.1 5.68324 23.3416 5.48324 23.625 5.3499C23.9083 5.21657 24.2 5.1499 24.5 5.1499C24.8 5.1499 25.0833 5.21657 25.35 5.3499C25.6166 5.48324 25.85 5.6999 26.05 5.9999C27.55 8.0999 28.8583 10.3999 29.975 12.8999C31.0916 15.3999 31.7666 17.4999 32 19.1999C30.7 19.7999 29.25 20.7749 27.65 22.1249C26.05 23.4749 25 24.5166 24.5 25.2499ZM30.4 42.3999C30.3333 40.3666 30.025 38.0582 29.475 35.4749C28.925 32.8916 28.0666 30.6666 26.9 28.7999C28.3333 26.5999 30.4583 24.6999 33.275 23.0999C36.0916 21.4999 39.0666 20.5166 42.2 20.1499C42.5333 20.0832 42.8333 20.1082 43.1 20.2249C43.3666 20.3416 43.6 20.4999 43.8 20.6999C44 20.8999 44.1583 21.1332 44.275 21.3999C44.3916 21.6666 44.4333 21.9666 44.4 22.2999C44.1333 27.6666 42.675 32.0249 40.025 35.3749C37.375 38.7249 34.1666 41.0666 30.4 42.3999Z" fill="#3F5AA9"/>
</g>
</g>
</svg>
