<svg width="25" height="25" viewBox="0 0 25 25" fill="none" xmlns="http://www.w3.org/2000/svg">
<g id="search">
<mask id="mask0_2231_373" style="mask-type:alpha" maskUnits="userSpaceOnUse" x="0" y="0" width="25" height="25">
<rect id="Bounding box" x="0.797119" y="0.625977" width="24" height="24" fill="#D9D9D9"/>
</mask>
<g mask="url(#mask0_2231_373)">
<path id="search_2" d="M10.2971 16.626C8.48045 16.626 6.94295 15.9968 5.68462 14.7385C4.42629 13.4801 3.79712 11.9426 3.79712 10.126C3.79712 8.30931 4.42629 6.77181 5.68462 5.51348C6.94295 4.25514 8.48045 3.62598 10.2971 3.62598C12.1138 3.62598 13.6513 4.25514 14.9096 5.51348C16.168 6.77181 16.7971 8.30931 16.7971 10.126C16.7971 10.8593 16.6805 11.551 16.4471 12.201C16.2138 12.851 15.8971 13.426 15.4971 13.926L21.0971 19.526C21.2805 19.7093 21.3721 19.9426 21.3721 20.226C21.3721 20.5093 21.2805 20.7426 21.0971 20.926C20.9138 21.1093 20.6805 21.201 20.3971 21.201C20.1138 21.201 19.8805 21.1093 19.6971 20.926L14.0971 15.326C13.5971 15.726 13.0221 16.0426 12.3721 16.276C11.7221 16.5093 11.0305 16.626 10.2971 16.626ZM10.2971 14.626C11.5471 14.626 12.6096 14.1885 13.4846 13.3135C14.3596 12.4385 14.7971 11.376 14.7971 10.126C14.7971 8.87598 14.3596 7.81348 13.4846 6.93848C12.6096 6.06348 11.5471 5.62598 10.2971 5.62598C9.04712 5.62598 7.98462 6.06348 7.10962 6.93848C6.23462 7.81348 5.79712 8.87598 5.79712 10.126C5.79712 11.376 6.23462 12.4385 7.10962 13.3135C7.98462 14.1885 9.04712 14.626 10.2971 14.626Z" fill="#325DA8"/>
</g>
</g>
</svg>
