<svg width="90" height="26" viewBox="0 0 90 26" fill="none" xmlns="http://www.w3.org/2000/svg">
<g id="pop4u">
<path d="M0 25.9641V4.93613H4.256L4.424 8.26813L3.584 8.01613C3.71467 7.40013 4.032 6.84013 4.536 6.33613C5.04 5.83213 5.67467 5.4308 6.44 5.13213C7.224 4.8148 8.04533 4.65613 8.904 4.65613C10.1733 4.65613 11.3027 4.99213 12.292 5.66413C13.2813 6.31747 14.056 7.2228 14.616 8.38013C15.1947 9.5188 15.484 10.8441 15.484 12.3561C15.484 13.8495 15.1947 15.1748 14.616 16.3321C14.056 17.4895 13.272 18.4041 12.264 19.0761C11.2747 19.7295 10.136 20.0561 8.848 20.0561C8.008 20.0561 7.20533 19.8975 6.44 19.5801C5.67467 19.2628 5.03067 18.8335 4.508 18.2921C3.98533 17.7508 3.64 17.1628 3.472 16.5281L4.508 16.1361V25.9641H0ZM7.756 16.2761C8.428 16.2761 9.016 16.1175 9.52 15.8001C10.024 15.4641 10.416 15.0068 10.696 14.4281C10.976 13.8495 11.116 13.1588 11.116 12.3561C11.116 11.5721 10.976 10.8908 10.696 10.3121C10.416 9.7148 10.024 9.25747 9.52 8.94013C9.03467 8.60413 8.44667 8.43613 7.756 8.43613C7.06533 8.43613 6.468 8.5948 5.964 8.91213C5.46 9.22947 5.068 9.6868 4.788 10.2841C4.508 10.8815 4.368 11.5721 4.368 12.3561C4.368 13.1588 4.508 13.8495 4.788 14.4281C5.068 15.0068 5.46 15.4641 5.964 15.8001C6.468 16.1175 7.06533 16.2761 7.756 16.2761Z" fill="#F3B5BB"/>
<path d="M25.957 20.0841C24.4077 20.0841 23.0264 19.7481 21.813 19.0761C20.6184 18.4041 19.6664 17.4895 18.957 16.3321C18.2664 15.1748 17.921 13.8495 17.921 12.3561C17.921 10.8628 18.2664 9.53747 18.957 8.38013C19.6664 7.2228 20.6184 6.30813 21.813 5.63613C23.0264 4.96413 24.4077 4.62813 25.957 4.62813C27.5064 4.62813 28.8784 4.96413 30.073 5.63613C31.2864 6.30813 32.2384 7.2228 32.929 8.38013C33.6197 9.53747 33.965 10.8628 33.965 12.3561C33.965 13.8495 33.6197 15.1748 32.929 16.3321C32.2384 17.4895 31.2864 18.4041 30.073 19.0761C28.8784 19.7481 27.5064 20.0841 25.957 20.0841ZM25.957 16.2201C26.629 16.2201 27.2264 16.0521 27.749 15.7161C28.2717 15.3801 28.6824 14.9228 28.981 14.3441C29.2797 13.7655 29.4197 13.1028 29.401 12.3561C29.4197 11.6095 29.2797 10.9468 28.981 10.3681C28.6824 9.7708 28.2717 9.30413 27.749 8.96813C27.2264 8.63213 26.629 8.46413 25.957 8.46413C25.285 8.46413 24.6784 8.63213 24.137 8.96813C23.6144 9.30413 23.2037 9.7708 22.905 10.3681C22.6064 10.9468 22.4664 11.6095 22.485 12.3561C22.4664 13.1028 22.6064 13.7655 22.905 14.3441C23.2037 14.9228 23.6144 15.3801 24.137 15.7161C24.6784 16.0521 25.285 16.2201 25.957 16.2201Z" fill="#F3B5BB"/>
<path d="M37.3945 25.9641V4.93613H41.6505L41.8185 8.26813L40.9785 8.01613C41.1092 7.40013 41.4265 6.84013 41.9305 6.33613C42.4345 5.83213 43.0692 5.4308 43.8345 5.13213C44.6185 4.8148 45.4399 4.65613 46.2985 4.65613C47.5679 4.65613 48.6972 4.99213 49.6865 5.66413C50.6759 6.31747 51.4505 7.2228 52.0105 8.38013C52.5892 9.5188 52.8785 10.8441 52.8785 12.3561C52.8785 13.8495 52.5892 15.1748 52.0105 16.3321C51.4505 17.4895 50.6665 18.4041 49.6585 19.0761C48.6692 19.7295 47.5305 20.0561 46.2425 20.0561C45.4025 20.0561 44.5999 19.8975 43.8345 19.5801C43.0692 19.2628 42.4252 18.8335 41.9025 18.2921C41.3799 17.7508 41.0345 17.1628 40.8665 16.5281L41.9025 16.1361V25.9641H37.3945ZM45.1505 16.2761C45.8225 16.2761 46.4105 16.1175 46.9145 15.8001C47.4185 15.4641 47.8105 15.0068 48.0905 14.4281C48.3705 13.8495 48.5105 13.1588 48.5105 12.3561C48.5105 11.5721 48.3705 10.8908 48.0905 10.3121C47.8105 9.7148 47.4185 9.25747 46.9145 8.94013C46.4292 8.60413 45.8412 8.43613 45.1505 8.43613C44.4599 8.43613 43.8625 8.5948 43.3585 8.91213C42.8545 9.22947 42.4625 9.6868 42.1825 10.2841C41.9025 10.8815 41.7625 11.5721 41.7625 12.3561C41.7625 13.1588 41.9025 13.8495 42.1825 14.4281C42.4625 15.0068 42.8545 15.4641 43.3585 15.8001C43.8625 16.1175 44.4599 16.2761 45.1505 16.2761Z" fill="#F3B5BB"/>
<path d="M64.1356 19.8041V3.95613L66.6836 4.01213L59.5996 12.6921L58.9276 11.8521H71.9196V15.7721H56.7996L54.8956 12.1041L64.8916 0.0361328H68.7276V19.8041H64.1356Z" fill="#F3B5BB"/>
<path d="M80.4586 20.1121C79.3573 20.1121 78.4146 19.8788 77.6306 19.4121C76.8653 18.9268 76.268 18.2361 75.8386 17.3401C75.428 16.4441 75.2226 15.3708 75.2226 14.1201V4.93613H79.7306V13.5041C79.7306 14.1015 79.824 14.6148 80.0106 15.0441C80.1973 15.4735 80.4773 15.8095 80.8506 16.0521C81.224 16.2761 81.672 16.3881 82.1946 16.3881C82.5866 16.3881 82.9413 16.3228 83.2586 16.1921C83.5946 16.0615 83.8746 15.8841 84.0986 15.6601C84.3413 15.4175 84.528 15.1468 84.6586 14.8481C84.7893 14.5308 84.8546 14.1855 84.8546 13.8121V4.93613H89.3626V19.8041H85.1346L84.9386 16.7521L85.7786 16.4161C85.5546 17.1255 85.1813 17.7601 84.6586 18.3201C84.136 18.8615 83.5106 19.3001 82.7826 19.6361C82.0546 19.9535 81.28 20.1121 80.4586 20.1121Z" fill="#F3B5BB"/>
</g>
</svg>
