<svg width="25" height="25" viewBox="0 0 25 25" fill="none" xmlns="http://www.w3.org/2000/svg">
<g id="alternate_email">
<mask id="mask0_1733_2078" style="mask-type:alpha" maskUnits="userSpaceOnUse" x="0" y="0" width="25" height="25">
<rect id="Bounding box" x="0.179688" y="0.536652" width="24" height="24" fill="#D9D9D9"/>
</mask>
<g mask="url(#mask0_1733_2078)">
<path id="alternate_email_2" d="M12.1797 22.5367C10.7964 22.5367 9.49635 22.2742 8.27969 21.7492C7.06302 21.2242 6.00469 20.5117 5.10469 19.6117C4.20469 18.7117 3.49219 17.6533 2.96719 16.4367C2.44219 15.22 2.17969 13.92 2.17969 12.5367C2.17969 11.1533 2.44219 9.85332 2.96719 8.63665C3.49219 7.41998 4.20469 6.36165 5.10469 5.46165C6.00469 4.56165 7.06302 3.84915 8.27969 3.32415C9.49635 2.79915 10.7964 2.53665 12.1797 2.53665C13.563 2.53665 14.863 2.79915 16.0797 3.32415C17.2964 3.84915 18.3547 4.56165 19.2547 5.46165C20.1547 6.36165 20.8672 7.41998 21.3922 8.63665C21.9172 9.85332 22.1797 11.1533 22.1797 12.5367V13.9867C22.1797 14.97 21.8422 15.8075 21.1672 16.4992C20.4922 17.1908 19.663 17.5367 18.6797 17.5367C18.0964 17.5367 17.5464 17.4117 17.0297 17.1617C16.513 16.9117 16.0797 16.5533 15.7297 16.0867C15.2464 16.57 14.7005 16.9325 14.0922 17.1742C13.4839 17.4158 12.8464 17.5367 12.1797 17.5367C10.7964 17.5367 9.61719 17.0492 8.64219 16.0742C7.66719 15.0992 7.17969 13.92 7.17969 12.5367C7.17969 11.1533 7.66719 9.97415 8.64219 8.99915C9.61719 8.02415 10.7964 7.53665 12.1797 7.53665C13.563 7.53665 14.7422 8.02415 15.7172 8.99915C16.6922 9.97415 17.1797 11.1533 17.1797 12.5367V13.9867C17.1797 14.42 17.3214 14.7867 17.6047 15.0867C17.888 15.3867 18.2464 15.5367 18.6797 15.5367C19.113 15.5367 19.4714 15.3867 19.7547 15.0867C20.038 14.7867 20.1797 14.42 20.1797 13.9867V12.5367C20.1797 10.3033 19.4047 8.41165 17.8547 6.86165C16.3047 5.31165 14.413 4.53665 12.1797 4.53665C9.94635 4.53665 8.05469 5.31165 6.50469 6.86165C4.95469 8.41165 4.17969 10.3033 4.17969 12.5367C4.17969 14.77 4.95469 16.6617 6.50469 18.2117C8.05469 19.7617 9.94635 20.5367 12.1797 20.5367H16.1797C16.463 20.5367 16.7005 20.6325 16.8922 20.8242C17.0839 21.0158 17.1797 21.2533 17.1797 21.5367C17.1797 21.82 17.0839 22.0575 16.8922 22.2492C16.7005 22.4408 16.463 22.5367 16.1797 22.5367H12.1797ZM12.1797 15.5367C13.013 15.5367 13.7214 15.245 14.3047 14.6617C14.888 14.0783 15.1797 13.37 15.1797 12.5367C15.1797 11.7033 14.888 10.995 14.3047 10.4117C13.7214 9.82832 13.013 9.53665 12.1797 9.53665C11.3464 9.53665 10.638 9.82832 10.0547 10.4117C9.47135 10.995 9.17969 11.7033 9.17969 12.5367C9.17969 13.37 9.47135 14.0783 10.0547 14.6617C10.638 15.245 11.3464 15.5367 12.1797 15.5367Z" fill="#3F5AA9"/>
</g>
</g>
</svg>
