<svg width="24" height="24" viewBox="0 0 24 24" fill="none" xmlns="http://www.w3.org/2000/svg">
<g clip-path="url(#clip0_1_3)">
<path d="M11.94 0C11.4178 0 10.6134 0.307013 10.4054 0.750031L10.4024 0.758032L7.8903 6.42727C7.79827 6.81428 7.47913 7.1053 7.08497 7.1553H7.07996L1.08445 8.28935C0.799335 8.36435 0.553232 8.50535 0.354148 8.69536L0.355149 8.69436C0.136057 8.91237 0 9.21438 0 9.5484C0 9.92041 0.169071 10.2534 0.434182 10.4744L0.436183 10.4764L4.97308 14.6886C5.22619 14.9176 5.38525 15.2466 5.38525 15.6127C5.38525 15.6577 5.38325 15.7027 5.37825 15.7467V15.7417L4.40584 23.274C4.40384 23.294 4.40284 23.316 4.40284 23.339C4.40284 23.463 4.43386 23.58 4.48888 23.682L4.48688 23.678C4.58392 23.87 4.779 24 5.00509 24C5.11214 24 5.21318 23.971 5.29922 23.92L5.29622 23.921L11.6969 20.1948C11.7779 20.1948 11.859 20.1138 11.94 20.1138V0Z" fill="#11448F"/>
<path d="M11.94 4.54084e-09C11.843 4.54084e-09 12.03 -9.76427e-09 11.94 4.54084e-09C12.462 4.54084e-09 13.266 0.307 13.474 0.75L13.477 0.758L15.988 6.427C16.08 6.814 16.399 7.105 16.793 7.155H16.798L22.791 8.289C23.076 8.364 23.322 8.505 23.521 8.695L23.52 8.694C23.739 8.912 23.875 9.214 23.875 9.548C23.875 9.92 23.706 10.253 23.441 10.474L23.439 10.476L18.904 14.688C18.651 14.917 18.492 15.246 18.492 15.612C18.492 15.657 18.494 15.702 18.499 15.746V15.741L19.471 23.273C19.473 23.293 19.474 23.315 19.474 23.338C19.474 23.462 19.443 23.579 19.388 23.681L19.39 23.677C19.293 23.869 19.098 23.999 18.872 23.999C18.765 23.999 18.664 23.97 18.578 23.919L18.581 23.92L12.183 20.194C12.102 20.194 12.021 20.113 11.94 20.113L11.94 4.54084e-09Z" fill="#11448F"/>
</g>
<defs>
<clipPath id="clip0_1_3">
<rect width="24" height="24" fill="white"/>
</clipPath>
</defs>
</svg>
