<svg width="25" height="24" viewBox="0 0 25 24" fill="none" xmlns="http://www.w3.org/2000/svg">
<g id="arrow_outward">
<mask id="mask0_1541_862" style="mask-type:alpha" maskUnits="userSpaceOnUse" x="0" y="0" width="25" height="24">
<rect id="Bounding box" x="0.5" width="24" height="24" fill="#D9D9D9"/>
</mask>
<g mask="url(#mask0_1541_862)">
<path id="arrow_outward_2" d="M16.5 8.4L7.60005 17.3C7.41672 17.4833 7.18338 17.575 6.90005 17.575C6.61672 17.575 6.38338 17.4833 6.20005 17.3C6.01672 17.1167 5.92505 16.8833 5.92505 16.6C5.92505 16.3167 6.01672 16.0833 6.20005 15.9L15.1 7H7.50005C7.21672 7 6.97922 6.90417 6.78755 6.7125C6.59588 6.52083 6.50005 6.28333 6.50005 6C6.50005 5.71667 6.59588 5.47917 6.78755 5.2875C6.97922 5.09583 7.21672 5 7.50005 5H17.5C17.7834 5 18.0209 5.09583 18.2125 5.2875C18.4042 5.47917 18.5 5.71667 18.5 6V16C18.5 16.2833 18.4042 16.5208 18.2125 16.7125C18.0209 16.9042 17.7834 17 17.5 17C17.2167 17 16.9792 16.9042 16.7875 16.7125C16.5959 16.5208 16.5 16.2833 16.5 16V8.4Z" fill="#1C1B1F"/>
</g>
</g>
</svg>
