<svg width="25" height="24" viewBox="0 0 25 24" fill="none" xmlns="http://www.w3.org/2000/svg">
<g id="arrow_outward">
<mask id="mask0_1757_3334" style="mask-type:alpha" maskUnits="userSpaceOnUse" x="0" y="0" width="25" height="24">
<rect id="Bounding box" x="0.5" width="24" height="24" fill="#D9D9D9"/>
</mask>
<g mask="url(#mask0_1757_3334)">
<path id="arrow_outward_2" d="M16.4998 8.4L7.5998 17.3C7.41647 17.4833 7.18314 17.575 6.8998 17.575C6.61647 17.575 6.38314 17.4833 6.1998 17.3C6.01647 17.1167 5.9248 16.8833 5.9248 16.6C5.9248 16.3167 6.01647 16.0833 6.1998 15.9L15.0998 7H7.4998C7.21647 7 6.97897 6.90417 6.7873 6.7125C6.59564 6.52083 6.4998 6.28333 6.4998 6C6.4998 5.71667 6.59564 5.47917 6.7873 5.2875C6.97897 5.09583 7.21647 5 7.4998 5H17.4998C17.7831 5 18.0206 5.09583 18.2123 5.2875C18.404 5.47917 18.4998 5.71667 18.4998 6V16C18.4998 16.2833 18.404 16.5208 18.2123 16.7125C18.0206 16.9042 17.7831 17 17.4998 17C17.2165 17 16.979 16.9042 16.7873 16.7125C16.5956 16.5208 16.4998 16.2833 16.4998 16V8.4Z" fill="#1C1B1F"/>
</g>
</g>
</svg>
