<svg width="25" height="24" viewBox="0 0 25 24" fill="none" xmlns="http://www.w3.org/2000/svg">
<g id="chevron_right">
<mask id="mask0_1344_15402" style="mask-type:alpha" maskUnits="userSpaceOnUse" x="0" y="0" width="25" height="24">
<rect id="Bounding box" x="0.5" width="24" height="24" fill="#D9D9D9"/>
</mask>
<g mask="url(#mask0_1344_15402)">
<path id="chevron_right_2" d="M13.0998 12L9.1998 8.10005C9.01647 7.91672 8.9248 7.68338 8.9248 7.40005C8.9248 7.11672 9.01647 6.88338 9.1998 6.70005C9.38314 6.51672 9.61647 6.42505 9.8998 6.42505C10.1831 6.42505 10.4165 6.51672 10.5998 6.70005L15.1998 11.3C15.2998 11.4 15.3706 11.5084 15.4123 11.625C15.454 11.7417 15.4748 11.8667 15.4748 12C15.4748 12.1334 15.454 12.2584 15.4123 12.375C15.3706 12.4917 15.2998 12.6 15.1998 12.7L10.5998 17.3C10.4165 17.4834 10.1831 17.575 9.8998 17.575C9.61647 17.575 9.38314 17.4834 9.1998 17.3C9.01647 17.1167 8.9248 16.8834 8.9248 16.6C8.9248 16.3167 9.01647 16.0834 9.1998 15.9L13.0998 12Z" fill="#1C1B1F"/>
</g>
</g>
</svg>
