<svg width="25" height="24" viewBox="0 0 25 24" fill="none" xmlns="http://www.w3.org/2000/svg">
<g id="chevron_left">
<mask id="mask0_1344_15390" style="mask-type:alpha" maskUnits="userSpaceOnUse" x="0" y="0" width="25" height="24">
<rect id="Bounding box" x="0.5" width="24" height="24" fill="#D9D9D9"/>
</mask>
<g mask="url(#mask0_1344_15390)">
<path id="chevron_left_2" d="M11.2998 12L15.1998 15.9C15.3831 16.0834 15.4748 16.3167 15.4748 16.6C15.4748 16.8834 15.3831 17.1167 15.1998 17.3C15.0165 17.4834 14.7831 17.575 14.4998 17.575C14.2165 17.575 13.9831 17.4834 13.7998 17.3L9.1998 12.7C9.0998 12.6 9.02897 12.4917 8.9873 12.375C8.94564 12.2584 8.9248 12.1334 8.9248 12C8.9248 11.8667 8.94564 11.7417 8.9873 11.625C9.02897 11.5084 9.0998 11.4 9.1998 11.3L13.7998 6.70005C13.9831 6.51672 14.2165 6.42505 14.4998 6.42505C14.7831 6.42505 15.0165 6.51672 15.1998 6.70005C15.3831 6.88338 15.4748 7.11672 15.4748 7.40005C15.4748 7.68338 15.3831 7.91672 15.1998 8.10005L11.2998 12Z" fill="#1C1B1F"/>
</g>
</g>
</svg>
