<?xml version="1.0" standalone="no"?>
<!DOCTYPE svg PUBLIC "-//W3C//DTD SVG 20010904//EN"
 "http://www.w3.org/TR/2001/REC-SVG-20010904/DTD/svg10.dtd">
<svg version="1.0" xmlns="http://www.w3.org/2000/svg"
 width="41.000000pt" height="40.000000pt" viewBox="0 0 41.000000 40.000000"
 preserveAspectRatio="xMidYMid meet">

<g transform="translate(0.000000,40.000000) scale(0.100000,-0.100000)"
fill="#000000" stroke="none">
<path d="M145 388 c-114 -42 -166 -164 -116 -274 18 -39 65 -84 104 -97 15 -6
17 1 17 58 0 58 -2 65 -20 65 -16 0 -20 7 -20 30 0 23 5 30 19 30 14 0 20 10
24 41 8 59 35 83 94 83 47 1 48 0 51 -31 3 -29 1 -32 -30 -35 -28 -2 -34 -7
-36 -30 -3 -26 -1 -28 31 -28 32 0 33 -2 29 -30 -4 -25 -9 -30 -33 -30 -29 0
-29 0 -29 -65 0 -52 3 -65 15 -65 33 0 96 42 122 82 24 35 28 52 28 109 0 59
-4 73 -30 110 -16 23 -46 50 -65 61 -46 23 -116 31 -155 16z"/>
</g>
</svg>
