<?xml version="1.0" standalone="no"?>
<!DOCTYPE svg PUBLIC "-//W3C//DTD SVG 20010904//EN"
 "http://www.w3.org/TR/2001/REC-SVG-20010904/DTD/svg10.dtd">
<svg version="1.0" xmlns="http://www.w3.org/2000/svg"
 width="41.000000pt" height="40.000000pt" viewBox="0 0 41.000000 40.000000"
 preserveAspectRatio="xMidYMid meet">

<g transform="translate(0.000000,40.000000) scale(0.100000,-0.100000)"
fill="#000000" stroke="none">
<path d="M74 386 c-55 -24 -64 -48 -64 -168 0 -91 2 -107 15 -102 12 5 15 26
15 100 0 84 2 96 24 121 24 28 25 28 141 28 116 0 117 0 141 -28 22 -26 24
-37 24 -133 0 -105 -8 -138 -39 -161 -21 -15 -9 -27 18 -18 39 12 51 55 51
175 0 128 -12 164 -65 186 -45 18 -218 18 -261 0z"/>
<path d="M297 324 c-14 -15 -6 -34 14 -34 14 0 19 5 17 17 -3 18 -20 27 -31
17z"/>
<path d="M142 275 c-30 -25 -33 -32 -30 -74 2 -34 7 -47 21 -49 14 -3 16 0 7
22 -26 69 59 127 110 76 28 -28 26 -76 -5 -104 -21 -20 -23 -25 -10 -30 28
-10 65 37 65 83 0 54 -32 90 -86 98 -34 4 -45 1 -72 -22z"/>
</g>
</svg>
