<svg width="24" height="24" viewBox="0 0 24 24" fill="none" xmlns="http://www.w3.org/2000/svg">
<g id="enable">
<mask id="mask0_1344_15449" style="mask-type:alpha" maskUnits="userSpaceOnUse" x="0" y="0" width="24" height="24">
<rect id="Bounding box" width="24" height="24" fill="#D9D9D9"/>
</mask>
<g mask="url(#mask0_1344_15449)">
<path id="enable_2" d="M12 22C10.6167 22 9.31667 21.7375 8.1 21.2125C6.88333 20.6875 5.825 19.975 4.925 19.075C4.025 18.175 3.3125 17.1167 2.7875 15.9C2.2625 14.6833 2 13.3833 2 12C2 10.1333 2.47083 8.4125 3.4125 6.8375C4.35417 5.2625 5.63333 4.04167 7.25 3.175C7.5 3.04167 7.7625 3.025 8.0375 3.125C8.3125 3.225 8.50833 3.40833 8.625 3.675C8.725 3.925 8.725 4.17917 8.625 4.4375C8.525 4.69583 8.35833 4.89167 8.125 5.025C6.875 5.725 5.875 6.69583 5.125 7.9375C4.375 9.17917 4 10.5333 4 12C4 14.2333 4.775 16.125 6.325 17.675C7.875 19.225 9.76667 20 12 20C14.2333 20 16.125 19.225 17.675 17.675C19.225 16.125 20 14.2333 20 12C20 10.5333 19.625 9.17917 18.875 7.9375C18.125 6.69583 17.125 5.725 15.875 5.025C15.6417 4.89167 15.475 4.69583 15.375 4.4375C15.275 4.17917 15.275 3.925 15.375 3.675C15.475 3.40833 15.6542 3.21667 15.9125 3.1C16.1708 2.98333 16.4167 2.99167 16.65 3.125C18.2833 3.975 19.5833 5.19167 20.55 6.775C21.5167 8.35833 22 10.1 22 12C22 13.3833 21.7375 14.6833 21.2125 15.9C20.6875 17.1167 19.975 18.175 19.075 19.075C18.175 19.975 17.1167 20.6875 15.9 21.2125C14.6833 21.7375 13.3833 22 12 22ZM11 12.175V3C11 2.71667 11.0958 2.47917 11.2875 2.2875C11.4792 2.09583 11.7167 2 12 2C12.2833 2 12.5208 2.09583 12.7125 2.2875C12.9042 2.47917 13 2.71667 13 3V12.175L14.9 10.3C15.0833 10.1167 15.3125 10.0208 15.5875 10.0125C15.8625 10.0042 16.1 10.1 16.3 10.3C16.4833 10.4833 16.575 10.7167 16.575 11C16.575 11.2833 16.4833 11.5167 16.3 11.7L12.7 15.3C12.5 15.5 12.2667 15.6 12 15.6C11.7333 15.6 11.5 15.5 11.3 15.3L7.7 11.7C7.51667 11.5167 7.42083 11.2875 7.4125 11.0125C7.40417 10.7375 7.5 10.5 7.7 10.3C7.88333 10.1167 8.11667 10.025 8.4 10.025C8.68333 10.025 8.91667 10.1167 9.1 10.3L11 12.175Z" fill="white"/>
</g>
</g>
</svg>
