<?xml version="1.0" standalone="no"?>
<!DOCTYPE svg PUBLIC "-//W3C//DTD SVG 20010904//EN"
 "http://www.w3.org/TR/2001/REC-SVG-20010904/DTD/svg10.dtd">
<svg version="1.0" xmlns="http://www.w3.org/2000/svg"
 width="40.000000pt" height="40.000000pt" viewBox="0 0 40.000000 40.000000"
 preserveAspectRatio="xMidYMid meet">

<g transform="translate(0.000000,40.000000) scale(0.100000,-0.100000)"
fill="#000000" stroke="none">
<path d="M10 396 c0 -2 32 -50 70 -107 39 -56 70 -107 70 -112 0 -4 -32 -45
-71 -90 -42 -49 -65 -83 -58 -86 7 -2 26 12 43 30 17 19 48 54 69 78 22 24 42
39 46 35 4 -5 29 -39 55 -76 l47 -68 55 0 c29 0 54 2 54 5 0 2 -34 54 -76 115
l-76 111 53 62 c29 34 62 72 73 85 19 21 19 22 0 21 -11 0 -44 -30 -77 -70
-32 -38 -62 -69 -65 -69 -4 1 -28 32 -55 70 l-47 70 -55 0 c-30 0 -55 -2 -55
-4z m207 -183 c137 -198 129 -183 99 -183 -20 0 -43 27 -140 166 -64 91 -116
167 -116 170 0 2 11 4 24 4 19 0 44 -30 133 -157z"/>
</g>
</svg>
