<svg width="24" height="24" viewBox="0 0 24 24" fill="none" xmlns="http://www.w3.org/2000/svg">
<g id="account_circle">
<mask id="mask0_1251_14771" style="mask-type:alpha" maskUnits="userSpaceOnUse" x="0" y="0" width="24" height="24">
<rect id="Bounding box" width="24" height="24" fill="#D9D9D9"/>
</mask>
<g mask="url(#mask0_1251_14771)">
<path id="account_circle_2" d="M5.84951 17.1002C6.69951 16.4502 7.64951 15.9377 8.69951 15.5627C9.74951 15.1877 10.8495 15.0002 11.9995 15.0002C13.1495 15.0002 14.2495 15.1877 15.2995 15.5627C16.3495 15.9377 17.2995 16.4502 18.1495 17.1002C18.7328 16.4169 19.187 15.6419 19.512 14.7752C19.837 13.9086 19.9995 12.9836 19.9995 12.0002C19.9995 9.78358 19.2203 7.89608 17.662 6.33774C16.1037 4.77941 14.2162 4.00024 11.9995 4.00024C9.78285 4.00024 7.89535 4.77941 6.33701 6.33774C4.77868 7.89608 3.99951 9.78358 3.99951 12.0002C3.99951 12.9836 4.16201 13.9086 4.48701 14.7752C4.81201 15.6419 5.26618 16.4169 5.84951 17.1002ZM11.9995 13.0002C11.0162 13.0002 10.187 12.6627 9.51201 11.9877C8.83701 11.3127 8.49951 10.4836 8.49951 9.50024C8.49951 8.51691 8.83701 7.68774 9.51201 7.01274C10.187 6.33774 11.0162 6.00024 11.9995 6.00024C12.9828 6.00024 13.812 6.33774 14.487 7.01274C15.162 7.68774 15.4995 8.51691 15.4995 9.50024C15.4995 10.4836 15.162 11.3127 14.487 11.9877C13.812 12.6627 12.9828 13.0002 11.9995 13.0002ZM11.9995 22.0002C10.6162 22.0002 9.31618 21.7377 8.09951 21.2127C6.88284 20.6877 5.82451 19.9752 4.92451 19.0752C4.02451 18.1752 3.31201 17.1169 2.78701 15.9002C2.26201 14.6836 1.99951 13.3836 1.99951 12.0002C1.99951 10.6169 2.26201 9.31691 2.78701 8.10024C3.31201 6.88358 4.02451 5.82524 4.92451 4.92524C5.82451 4.02524 6.88284 3.31274 8.09951 2.78774C9.31618 2.26274 10.6162 2.00024 11.9995 2.00024C13.3828 2.00024 14.6828 2.26274 15.8995 2.78774C17.1162 3.31274 18.1745 4.02524 19.0745 4.92524C19.9745 5.82524 20.687 6.88358 21.212 8.10024C21.737 9.31691 21.9995 10.6169 21.9995 12.0002C21.9995 13.3836 21.737 14.6836 21.212 15.9002C20.687 17.1169 19.9745 18.1752 19.0745 19.0752C18.1745 19.9752 17.1162 20.6877 15.8995 21.2127C14.6828 21.7377 13.3828 22.0002 11.9995 22.0002ZM11.9995 20.0002C12.8828 20.0002 13.7162 19.8711 14.4995 19.6127C15.2828 19.3544 15.9995 18.9836 16.6495 18.5002C15.9995 18.0169 15.2828 17.6461 14.4995 17.3877C13.7162 17.1294 12.8828 17.0002 11.9995 17.0002C11.1162 17.0002 10.2828 17.1294 9.49951 17.3877C8.71618 17.6461 7.99951 18.0169 7.34951 18.5002C7.99951 18.9836 8.71618 19.3544 9.49951 19.6127C10.2828 19.8711 11.1162 20.0002 11.9995 20.0002ZM11.9995 11.0002C12.4328 11.0002 12.7912 10.8586 13.0745 10.5752C13.3578 10.2919 13.4995 9.93358 13.4995 9.50024C13.4995 9.06691 13.3578 8.70858 13.0745 8.42524C12.7912 8.14191 12.4328 8.00024 11.9995 8.00024C11.5662 8.00024 11.2078 8.14191 10.9245 8.42524C10.6412 8.70858 10.4995 9.06691 10.4995 9.50024C10.4995 9.93358 10.6412 10.2919 10.9245 10.5752C11.2078 10.8586 11.5662 11.0002 11.9995 11.0002Z" fill="#325DA8"/>
</g>
</g>
</svg>
