<svg width="24" height="24" viewBox="0 0 24 24" fill="none" xmlns="http://www.w3.org/2000/svg">
<g id="local_mall">
<mask id="mask0_1251_14768" style="mask-type:alpha" maskUnits="userSpaceOnUse" x="0" y="0" width="24" height="24">
<rect id="Bounding box" width="24" height="24" fill="#D9D9D9"/>
</mask>
<g mask="url(#mask0_1251_14768)">
<path id="local_mall_2" d="M5 22.0005C4.45 22.0005 3.97917 21.8047 3.5875 21.413C3.19583 21.0213 3 20.5505 3 20.0005V8.00049C3 7.45049 3.19583 6.97966 3.5875 6.58799C3.97917 6.19632 4.45 6.00049 5 6.00049H7C7 4.61716 7.4875 3.43799 8.4625 2.46299C9.4375 1.48799 10.6167 1.00049 12 1.00049C13.3833 1.00049 14.5625 1.48799 15.5375 2.46299C16.5125 3.43799 17 4.61716 17 6.00049H19C19.55 6.00049 20.0208 6.19632 20.4125 6.58799C20.8042 6.97966 21 7.45049 21 8.00049V20.0005C21 20.5505 20.8042 21.0213 20.4125 21.413C20.0208 21.8047 19.55 22.0005 19 22.0005H5ZM5 20.0005H19V8.00049H5V20.0005ZM9 6.00049H15C15 5.16715 14.7083 4.45882 14.125 3.87549C13.5417 3.29215 12.8333 3.00049 12 3.00049C11.1667 3.00049 10.4583 3.29215 9.875 3.87549C9.29167 4.45882 9 5.16715 9 6.00049ZM11.975 14.0005C13.2083 14.0005 14.325 13.5922 15.325 12.7755C16.325 11.9588 16.8167 11.0422 16.8 10.0255C16.8 9.74216 16.7083 9.50049 16.525 9.30049C16.3417 9.10049 16.1083 9.00049 15.825 9.00049C15.5917 9.00049 15.3833 9.07549 15.2 9.22549C15.0167 9.37549 14.8833 9.60049 14.8 9.90049C14.6167 10.5338 14.2583 11.0422 13.725 11.4255C13.1917 11.8088 12.6083 12.0005 11.975 12.0005C11.3417 12.0005 10.7542 11.8088 10.2125 11.4255C9.67083 11.0422 9.31667 10.5338 9.15 9.90049C9.06667 9.58382 8.94167 9.35466 8.775 9.21299C8.60833 9.07132 8.40833 9.00049 8.175 9.00049C7.89167 9.00049 7.65417 9.10049 7.4625 9.30049C7.27083 9.50049 7.175 9.74216 7.175 10.0255C7.175 11.0422 7.66667 11.9588 8.65 12.7755C9.63333 13.5922 10.7417 14.0005 11.975 14.0005Z" fill="#325DA8"/>
</g>
</g>
</svg>
