<svg width="32" height="32" viewBox="0 0 32 32" fill="none" xmlns="http://www.w3.org/2000/svg">
<g id="&#240;&#159;&#166;&#134; icon &#34;Tik Tok&#34;">
<path id="Vector" d="M32 16C32 7.16344 24.8366 0 16 0C7.16344 0 0 7.16344 0 16C0 24.8366 7.16344 32 16 32C24.8366 32 32 24.8366 32 16Z" fill="black"/>
<g id="Group">
<path id="Vector_2" fill-rule="evenodd" clip-rule="evenodd" d="M19.4566 13.8259C20.5283 14.5885 21.8118 14.9959 23.1268 14.991V12.3826C22.8683 12.3833 22.6105 12.3556 22.358 12.3V14.378C21.0401 14.3803 19.7547 13.9683 18.6835 13.1999V18.5644C18.6802 19.4447 18.439 20.3077 17.9855 21.0619C17.5319 21.8161 16.8829 22.4334 16.1072 22.8483C15.3315 23.2632 14.4581 23.4603 13.5796 23.4187C12.7011 23.377 11.8502 23.0982 11.1172 22.6118C11.7952 23.2984 12.6616 23.7682 13.6065 23.9617C14.5515 24.1552 15.5326 24.0637 16.4256 23.6987C17.3185 23.3338 18.0832 22.7118 18.6228 21.9116C19.1624 21.1114 19.4525 20.1689 19.4566 19.2035V13.8259ZM20.4078 11.1654C19.8628 10.5741 19.5283 9.81906 19.4566 9.01779V8.67871H18.7269C18.8171 9.18802 19.0134 9.67263 19.303 10.1011C19.5925 10.5295 19.969 10.8921 20.4078 11.1654ZM12.8068 20.5468C12.5539 20.2158 12.3989 19.8204 12.3595 19.4055C12.32 18.9907 12.3977 18.5731 12.5838 18.2003C12.7698 17.8275 13.0566 17.5144 13.4116 17.2967C13.7666 17.0791 14.1756 16.9655 14.5919 16.969C14.8218 16.9689 15.0503 17.0041 15.2695 17.0733V14.378C15.0133 14.344 14.7548 14.3295 14.4964 14.3345V16.4299C13.9626 16.2611 13.3849 16.2995 12.8782 16.5375C12.3714 16.7755 11.9727 17.1958 11.7614 17.7146C11.5501 18.2334 11.5417 18.8129 11.7378 19.3377C11.9339 19.8625 12.3202 20.2941 12.8198 20.5468H12.8068Z" fill="#EE1D52"/>
<path id="Vector_3" fill-rule="evenodd" clip-rule="evenodd" d="M18.6827 13.1825C19.754 13.9508 21.0393 14.363 22.3573 14.3606V12.2826C21.6064 12.1237 20.9242 11.7329 20.4071 11.1654C19.9683 10.8921 19.5918 10.5295 19.3022 10.1011C19.0126 9.67263 18.8163 9.18802 18.7261 8.67871H16.8064V19.2035C16.8046 19.6694 16.6571 20.123 16.3846 20.5007C16.112 20.8783 15.7282 21.1611 15.2869 21.3093C14.8456 21.4575 14.3691 21.4636 13.9241 21.3269C13.4792 21.1901 13.0882 20.9174 12.8061 20.5468C12.3589 20.321 12.0008 19.951 11.7895 19.4965C11.5783 19.042 11.5261 18.5295 11.6416 18.0417C11.757 17.5539 12.0333 17.1193 12.4258 16.8079C12.8183 16.4966 13.3042 16.3267 13.805 16.3256C14.0348 16.3263 14.2632 16.3615 14.4826 16.4299V14.3345C13.5347 14.3573 12.614 14.6566 11.8337 15.1957C11.0533 15.7348 10.4472 16.4902 10.0897 17.3692C9.73228 18.2482 9.639 19.2125 9.8214 20.1439C10.0038 21.0751 10.4539 21.9329 11.1164 22.6118C11.8496 23.1017 12.7018 23.3834 13.5823 23.4269C14.4628 23.4703 15.3386 23.274 16.1164 22.8586C16.8942 22.4433 17.5448 21.8246 17.9991 21.0684C18.4533 20.3122 18.6941 19.4468 18.6957 18.5644L18.6827 13.1825Z" fill="white"/>
<path id="Vector_4" fill-rule="evenodd" clip-rule="evenodd" d="M22.358 12.2824V11.7217C21.6685 11.7246 20.9922 11.5316 20.4078 11.1652C20.9237 11.7344 21.6064 12.1255 22.358 12.2824ZM18.7269 8.67853C18.7269 8.57854 18.6965 8.47422 18.6835 8.37423V8.03516H16.034V18.5643C16.0317 19.1539 15.7958 19.7185 15.378 20.1341C14.9603 20.5498 14.3949 20.7826 13.8058 20.7814C13.459 20.7831 13.1167 20.7027 12.8068 20.5467C13.089 20.9172 13.48 21.19 13.9249 21.3267C14.3699 21.4635 14.8464 21.4573 15.2877 21.3091C15.729 21.1609 16.1128 20.8782 16.3853 20.5005C16.6578 20.1228 16.8053 19.6692 16.8071 19.2033V8.67853H18.7269ZM14.4834 14.33V13.7344C13.3931 13.5862 12.2849 13.8119 11.3392 14.3748C10.3935 14.9377 9.66621 15.8046 9.27583 16.8342C8.88541 17.8638 8.8549 18.9954 9.18929 20.0445C9.52368 21.0937 10.2032 21.9985 11.1172 22.6116C10.4597 21.9312 10.0144 21.0738 9.83571 20.1442C9.65705 19.2146 9.75274 18.253 10.1111 17.3769C10.4696 16.5009 11.0751 15.7482 11.8539 15.211C12.6326 14.6738 13.5509 14.3752 14.4964 14.3518L14.4834 14.33Z" fill="#69C9D0"/>
</g>
</g>
</svg>
